<?xml version="1.0"?>
<svg xmlns:rdf="http://www.w3.org/1999/02/22-rdf-syntax-ns#" xmlns="http://www.w3.org/2000/svg" xmlns:cc="http://web.resource.org/cc/" xmlns:dc="http://purl.org/dc/elements/1.1/" xmlns:svg="http://www.w3.org/2000/svg" id="svg14350" viewBox="0 0 87.636 120.48" version="1.0">
  <g id="layer1" transform="translate(-4278.2 2578.8)">
    <path id="rect3313" d="m4284.9-2577.7h74.2c3.1 0 5.6 2.5 5.6 5.6v107c0 3.1-2.5 5.6-5.6 5.6h-74.2c-3.1 0-5.6-2.5-5.6-5.6v-107c0-3.1 2.5-5.6 5.6-5.6z" stroke="#000" stroke-width="2.2013" fill="none"/>
    <path id="path3315" d="m4345.5-2511.2c-6 3.7-32 20-32 20s-1-5.3-2.3-7.3-2.9-0.8-2.9-0.8l-10.4 24.3 25.5 1.9s3.6-1 2-2.7c-1.8-1.9-5.7-5.6-5.7-5.6l31.8-19.9-6-9.9z" stroke="#000" stroke-width=".52579px" fill-rule="evenodd"/>
    <path id="text3317" d="m4088.9-2666.9v-16.9h3.4v7.5l6.9-7.5h4.6l-6.4 6.6 6.7 10.3h-4.4l-4.7-7.9-2.7 2.8v5.1h-3.4zm17 0v-16.9h12.5v2.9h-9.1v3.7h8.5v2.9h-8.5v4.6h9.4v2.8h-12.8zm15.8 0v-16.9h12.5v2.9h-9.1v3.7h8.5v2.9h-8.5v4.6h9.4v2.8h-12.8zm15.7 0v-16.9h5.5c2.1 0 3.5 0.1 4.1 0.2 1 0.3 1.8 0.9 2.4 1.7 0.7 0.9 1 1.9 1 3.3 0 1-0.2 1.9-0.6 2.6-0.3 0.7-0.8 1.3-1.4 1.7s-1.2 0.7-1.8 0.8c-0.8 0.1-2 0.2-3.5 0.2h-2.2v6.4h-3.5zm3.5-14v4.8h1.8c1.4 0 2.3-0.1 2.7-0.3 0.5-0.2 0.8-0.5 1.1-0.8 0.3-0.4 0.4-0.9 0.4-1.4 0-0.6-0.2-1.1-0.6-1.5-0.3-0.4-0.8-0.6-1.3-0.7-0.4-0.1-1.3-0.1-2.5-0.1h-1.6zm-49.3 35.3v-16.8h3.4v13.9h8.5v2.9h-11.9zm14.3 0v-16.9h12.5v2.8h-9.1v3.8h8.5v2.8h-8.5v4.6h9.5v2.9h-12.9zm15.8 0v-16.9h11.6v2.8h-8.2v4h7.1v2.9h-7.1v7.2h-3.4zm18.2 0v-14.1h-5v-2.8h13.5v2.8h-5v14.1h-3.5z" transform="scale(1.0492 .95313)"/>
  </g>
  <metadata>
    <rdf:RDF>
      <cc:Work>
        <dc:format>image/svg+xml</dc:format>
        <dc:type rdf:resource="http://purl.org/dc/dcmitype/StillImage"/>
        <cc:license rdf:resource="http://creativecommons.org/licenses/publicdomain/"/>
        <dc:publisher>
          <cc:Agent rdf:about="http://openclipart.org/">
            <dc:title>Openclipart</dc:title>
          </cc:Agent>
        </dc:publisher>
        <dc:title>sign_keep left</dc:title>
        <dc:date>2007-10-20T00:30:29</dc:date>
        <dc:description>clip art, clipart, image, media, public domain, roadsign, roadsign, sign, sign, svg, </dc:description>
        <dc:source>http://openclipart.org/detail/7268/sign_keep-left-by-leomarc</dc:source>
        <dc:creator>
          <cc:Agent>
            <dc:title>Leomarc</dc:title>
          </cc:Agent>
        </dc:creator>
        <dc:subject>
          <rdf:Bag>
            <rdf:li>clip art</rdf:li>
            <rdf:li>clipart</rdf:li>
            <rdf:li>image</rdf:li>
            <rdf:li>media</rdf:li>
            <rdf:li>public domain</rdf:li>
            <rdf:li>roadsign</rdf:li>
            <rdf:li>sign</rdf:li>
            <rdf:li>svg</rdf:li>
          </rdf:Bag>
        </dc:subject>
      </cc:Work>
      <cc:License rdf:about="http://creativecommons.org/licenses/publicdomain/">
        <cc:permits rdf:resource="http://creativecommons.org/ns#Reproduction"/>
        <cc:permits rdf:resource="http://creativecommons.org/ns#Distribution"/>
        <cc:permits rdf:resource="http://creativecommons.org/ns#DerivativeWorks"/>
      </cc:License>
    </rdf:RDF>
  </metadata>
</svg>
